<svg xmlns="http://www.w3.org/2000/svg" width="29.999" height="29.055" viewBox="0 0 29.999 29.055">
  <g id="Group_394" data-name="Group 394" transform="translate(-4295.48 -5893.639)">
    <line id="Line_55" data-name="Line 55" x2="28.329" transform="translate(4296.315 5899.196)" fill="none" stroke="#535252" stroke-linecap="round" stroke-linejoin="round" stroke-width="1.67"/>
    <path id="Rectangle_772" data-name="Rectangle 772" d="M0,0H20.775a0,0,0,0,1,0,0V17.663a5,5,0,0,1-5,5H5a5,5,0,0,1-5-5V0A0,0,0,0,1,0,0Z" transform="translate(4300.092 5899.196)" fill="none" stroke="#535252" stroke-linecap="round" stroke-linejoin="round" stroke-width="1.67"/>
    <line id="Line_56" data-name="Line 56" y2="11.961" transform="translate(4304.813 5904.547)" fill="none" stroke="#535252" stroke-linecap="round" stroke-linejoin="round" stroke-width="1.67"/>
    <line id="Line_57" data-name="Line 57" y2="11.961" transform="translate(4316.146 5904.547)" fill="none" stroke="#535252" stroke-linecap="round" stroke-linejoin="round" stroke-width="1.67"/>
    <line id="Line_58" data-name="Line 58" y2="11.961" transform="translate(4310.479 5904.547)" fill="none" stroke="#535252" stroke-linecap="round" stroke-linejoin="round" stroke-width="1.67"/>
    <path id="Path_60" data-name="Path 60" d="M4337.827,5899.2a4.721,4.721,0,0,1,9.443,0" transform="translate(-32.069)" fill="none" stroke="#535252" stroke-linecap="round" stroke-linejoin="round" stroke-width="1.67"/>
  </g>
</svg>
