<svg xmlns="http://www.w3.org/2000/svg" width="27.277" height="27.035" viewBox="0 0 27.277 27.035">
  <path id="Path_56" data-name="Path 56" d="M5707.727,1887.132h6.566a.95.95,0,0,0,.1-.005c.023,0,.047-.006.07-.01l.023,0c.028-.006.055-.013.082-.021l.009,0c.028-.008.054-.018.081-.029l.009,0c.025-.01.049-.022.073-.035l.012-.006c.022-.012.043-.025.064-.038l.017-.01c.02-.014.039-.028.058-.043l.018-.013c.024-.02.048-.042.07-.064l14.941-14.941,0,0,0,0,3.564-3.564h0a1.86,1.86,0,0,0,0-2.631l-5.063-5.063a1.863,1.863,0,0,0-2.631,0l-3.567,3.567h0l-15.185,15.184a.933.933,0,0,0-.063.07l-.015.02c-.015.018-.029.037-.042.057l-.011.018c-.013.021-.026.042-.038.063l-.006.013c-.013.024-.024.048-.034.073l0,.009c-.011.026-.021.053-.029.08l0,.01c-.008.027-.015.054-.021.082,0,.008,0,.016,0,.024,0,.023-.008.046-.01.07s0,.064,0,.1v6.085A.968.968,0,0,0,5707.727,1887.132Zm.968-1.936v-4.716l14.218-14.218,4.956,4.956-13.977,13.977Zm18.417-23.132,4.957,4.956-2.83,2.83-4.957-4.956Z" transform="translate(-5706.759 -1860.097)" fill="#535252"/>
</svg>
