<svg xmlns="http://www.w3.org/2000/svg" width="27.854" height="27.816" viewBox="0 0 27.854 27.816">
  <g id="Group_388" data-name="Group 388" transform="translate(-7278.443 -9353.493)">
    <path id="Path_53" data-name="Path 53" d="M7285.945,9353.494a6.972,6.972,0,0,1,4.994,1.941c2.257,2.167,4.445,4.4,6.657,6.615.142.142.345.348.327.5-.112.928.59,1.347,1.11,1.872,1.725,1.739,3.476,3.454,5.189,5.2a6.55,6.55,0,0,1,1.75,6.832,6.788,6.788,0,0,1-11.115,3.018c-2.041-1.966-4.012-4-6.042-5.98a3.869,3.869,0,0,0-1.019-.457,2.966,2.966,0,0,1-.821-.476c-2.16-2.14-4.343-4.258-6.437-6.462a7.455,7.455,0,0,1,3.914-12.442A13.238,13.238,0,0,1,7285.945,9353.494Zm10.773,11.252-6.972,6.95c2.167,2.225,4.3,4.595,6.633,6.756a5.016,5.016,0,0,0,6.947-7.173C7301.191,9369,7298.892,9366.881,7296.719,9364.746Zm-1.068-1.826c-2.041-2.128-4.01-4.419-6.232-6.431a5.5,5.5,0,0,0-7.48.406,5.447,5.447,0,0,0-.468,7.533c2.009,2.221,4.316,4.171,6.465,6.212Z" transform="translate(0 -0.001)" fill="#535252"/>
    <path id="Path_54" data-name="Path 54" d="M7296.406,9376.108c-.233.388-.375.67-.56.922a3,3,0,0,0,.155,4.038c.643.729,1.356,1.4,2.044,2.086.425.426.629.9.162,1.391-.483.51-.956.282-1.374-.142-.767-.776-1.574-1.52-2.289-2.343a4.73,4.73,0,0,1,.1-6.3,1.5,1.5,0,0,1,1.069-.366C7295.953,9375.422,7296.156,9375.837,7296.406,9376.108Z" transform="translate(-12.29 -18.002)" fill="#535252"/>
  </g>
</svg>
