<svg xmlns="http://www.w3.org/2000/svg" width="22.414" height="29.035" viewBox="0 0 22.414 29.035">
  <g id="Group_394" data-name="Group 394" transform="translate(-3417.886 -7666.588)">
    <path id="Path_60" data-name="Path 60" d="M3422.748,7678.07v-9.1a1.379,1.379,0,0,1,1.379-1.379h13.793a1.379,1.379,0,0,1,1.38,1.379v24.276a1.38,1.38,0,0,1-1.38,1.38h-17.655a1.379,1.379,0,0,1-1.379-1.38v-14.069a.552.552,0,0,1,.552-.552h2.759A.552.552,0,0,0,3422.748,7678.07Z" transform="translate(0 0)" fill="none" stroke="#535252" stroke-linecap="round" stroke-linejoin="round" stroke-width="2"/>
    <line id="Line_55" data-name="Line 55" y2="4.138" transform="translate(3427.714 7671.726)" fill="none" stroke="#535252" stroke-linecap="round" stroke-linejoin="round" stroke-width="2"/>
    <line id="Line_56" data-name="Line 56" y2="4.138" transform="translate(3431.024 7671.726)" fill="none" stroke="#535252" stroke-linecap="round" stroke-linejoin="round" stroke-width="2"/>
    <line id="Line_57" data-name="Line 57" y2="4.138" transform="translate(3434.334 7671.726)" fill="none" stroke="#535252" stroke-linecap="round" stroke-linejoin="round" stroke-width="2"/>
  </g>
</svg>
